<svg width="95" height="50" viewBox="0 0 95 50" fill="none" xmlns="http://www.w3.org/2000/svg">
<path d="M7.43472 34.9997C9.53578 34.9997 11.2597 35.707 12.7153 37.1725C14.1709 38.6406 14.8694 40.3794 14.8694 42.4985C14.8694 44.6177 14.1682 46.3564 12.7153 47.8246C11.2623 49.2927 9.53578 49.9973 7.43472 49.9973C5.33366 49.9973 3.60979 49.29 2.15418 47.8246C0.698582 46.3564 0 44.6177 0 42.4985C0 40.3794 0.701239 38.6406 2.15418 37.1725C3.60713 35.7043 5.33366 34.9997 7.43472 34.9997ZM37.4472 0.543857V15.4343H0.108904V0.543857H37.4472ZM0.108904 17.8803H37.4472V32.7707H0.108904V17.8803Z" fill="#FFDE1A"/>
<path d="M57.4909 46.193C55.0127 43.6398 53.7723 40.3231 53.7723 36.2482V35.5409C53.7723 32.334 52.6407 29.6174 50.4307 27.3884C48.2208 25.1594 45.5274 24.0181 42.3479 24.0181V0.543857H48.5448C50.5928 0.543857 52.3167 1.25114 53.7723 2.71661C55.2279 4.18475 55.9264 5.92348 55.9264 7.98907L55.9796 36.2482C55.9796 39.6721 57.0022 42.4985 59.1059 44.6177C61.2096 46.7369 63.7941 47.8246 66.9736 47.8246C70.1531 47.8246 72.6844 46.7369 74.7855 44.6177C76.8866 42.4985 77.9119 39.6721 77.9119 36.2482V2.82645C77.9119 1.25114 79.0434 0 80.7142 0C82.276 0 83.4633 1.25114 83.4633 2.82645V14.4564C83.4633 17.6633 84.5418 20.4335 86.7491 22.6625C88.959 24.8915 91.5993 25.9765 94.7761 25.9765V49.4535H88.5792C86.5313 49.4535 84.8074 48.7462 83.3518 47.2807C81.8962 45.8126 81.1976 44.0738 81.2507 42.0083V2.77287C81.2507 2.39243 81.0887 2.17543 80.7115 2.17543C80.3343 2.17543 80.1192 2.39243 80.1192 2.77287V36.2509C80.1192 40.3258 78.8787 43.6425 76.3474 46.1957C73.8691 48.7489 70.7428 50 66.9709 50C63.1991 50 60.0197 48.7489 57.4883 46.1957L57.4909 46.193Z" fill="#FFDE1A"/>
</svg>
