<?xml version="1.0" encoding="utf-8"?>
<!-- Generator: Adobe Illustrator 26.2.1, SVG Export Plug-In . SVG Version: 6.00 Build 0)  -->
<svg version="1.1" id="Livello_1" xmlns="http://www.w3.org/2000/svg" xmlns:xlink="http://www.w3.org/1999/xlink" x="0px" y="0px"
	 viewBox="0 0 500 500" style="enable-background:new 0 0 500 500;" xml:space="preserve">
<style type="text/css">
	.st0{fill:#1D1D1B;}
</style>
<g>
	<path class="st0" d="M99.6,286.4c7.9,0,14.4,2.6,19.9,8.1c5.5,5.5,8.1,12,8.1,19.9s-2.6,14.4-8.1,19.9c-5.5,5.5-12,8.1-19.9,8.1
		s-14.4-2.6-19.9-8.1c-5.5-5.5-8.1-12-8.1-19.9s2.6-14.4,8.1-19.9C85.2,289.1,91.7,286.4,99.6,286.4z M212.6,157.8v55.6H72v-55.6
		H212.6z M72,222.5h140.6v55.6H72V222.5z"/>
	<path class="st0" d="M288,328.2c-9.3-9.5-14-21.9-14-37.1v-2.6c0-12-4.3-22.1-12.6-30.4c-8.3-8.3-18.5-12.6-30.4-12.6v-87.6h23.3
		c7.7,0,14.2,2.6,19.7,8.1c5.5,5.5,8.1,12,8.1,19.7l0.2,105.5c0,12.8,3.9,23.3,11.8,31.2s17.6,12,29.6,12c11.8,0,21.5-4.1,29.4-12
		s11.8-18.5,11.8-31.2V166.4c0-5.9,4.3-10.5,10.5-10.5c5.9,0,10.3,4.7,10.3,10.5v43.4c0,12,4.1,22.3,12.4,30.6
		c8.3,8.3,18.3,12.4,30.2,12.4v87.6h-23.3c-7.7,0-14.2-2.6-19.7-8.1c-5.5-5.5-8.1-12-7.9-19.7V166.2c0-1.4-0.6-2.2-2-2.2
		s-2.2,0.8-2.2,2.2v125c0,15.2-4.7,27.6-14.2,37.1c-9.3,9.5-21.1,14.2-35.3,14.2C309.3,342.4,297.6,337.8,288,328.2z"/>
</g>
</svg>
