<svg width="64" height="50" viewBox="0 0 64 50" fill="none" xmlns="http://www.w3.org/2000/svg">
<path d="M25.7235 32.2347V34.6731H32.0204V49.4641H17.2294V43.1672H14.791V49.4641H0V34.6731H6.29689V15.3269H0V0.535889H14.791V15.3269H8.4941V34.6731H14.791V40.97H17.2294V34.6731H23.5263V32.2347H17.2294V17.4437H32.0204V32.2347H25.7235V32.2347Z" fill="#E61C47"/>
<path d="M40.9971 46.1951C38.3979 43.6495 37.085 40.5949 37.085 37.1115C37.085 31.672 39.6841 28.8049 42.5244 26.179C45.3379 23.5799 48.2854 21.2219 48.8749 16.881H52.0367C52.7334 21.7846 56.9939 24.5981 60.0753 27.7063C62.2457 29.8232 63.8802 33.0386 63.8802 37.1115C63.8802 40.5949 62.5673 43.6227 59.9681 46.1951C57.369 48.7406 54.2071 50 50.4558 50C46.7581 50 43.5962 48.7674 40.9971 46.1951ZM50.4558 14.4695C48.4462 14.4695 46.7581 13.7728 45.3379 12.3526C43.9178 10.9325 43.2211 9.24437 43.2211 7.23473C43.2211 5.22508 43.9178 3.53698 45.3379 2.11683C46.7581 0.696676 48.4462 0 50.4558 0C52.4655 0 54.1536 0.696676 55.5737 2.11683C56.9939 3.53698 57.6905 5.22508 57.6905 7.23473C57.6905 9.24437 56.9939 10.9325 55.5737 12.3526C54.1536 13.746 52.4655 14.4695 50.4558 14.4695Z" fill="#E61C47"/>
</svg>
