<?xml version="1.0" encoding="utf-8"?>
<!-- Generator: Adobe Illustrator 26.2.1, SVG Export Plug-In . SVG Version: 6.00 Build 0)  -->
<svg version="1.1" id="Livello_1" xmlns="http://www.w3.org/2000/svg" xmlns:xlink="http://www.w3.org/1999/xlink" x="0px" y="0px"
	 viewBox="0 0 500 500" style="enable-background:new 0 0 500 500;" xml:space="preserve">
<style type="text/css">
	.st0{fill:#1D1D1B;}
</style>
<g>
	<path class="st0" d="M226.8,276.1v9.1h23.5v55.2h-55.2v-23.5H186v23.5h-55.2v-55.2h23.5V213h-23.5v-55.2H186V213h-23.5v72.2H186
		v23.5h9.1v-23.5h23.5v-9.1h-23.5v-55.2h55.2v55.2H226.8z"/>
	<path class="st0" d="M283.8,328.2c-9.7-9.5-14.6-20.9-14.6-33.9c0-20.3,9.7-31,20.3-40.8c10.5-9.7,21.5-18.5,23.7-34.7H325
		c2.6,18.3,18.5,28.8,30,40.4c8.1,7.9,14.2,19.9,14.2,35.1c0,13-4.9,24.3-14.6,33.9c-9.7,9.5-21.5,14.2-35.5,14.2
		C305.3,342.4,293.5,337.8,283.8,328.2z M319.1,209.8c-7.5,0-13.8-2.6-19.1-7.9c-5.3-5.3-7.9-11.6-7.9-19.1s2.6-13.8,7.9-19.1
		c5.3-5.3,11.6-7.9,19.1-7.9c7.5,0,13.8,2.6,19.1,7.9c5.3,5.3,7.9,11.6,7.9,19.1s-2.6,13.8-7.9,19.1
		C332.9,207.1,326.6,209.8,319.1,209.8z"/>
</g>
</svg>
