<?xml version="1.0" encoding="utf-8"?>
<!-- Generator: Adobe Illustrator 26.2.1, SVG Export Plug-In . SVG Version: 6.00 Build 0)  -->
<svg version="1.1" id="Livello_1" xmlns="http://www.w3.org/2000/svg" xmlns:xlink="http://www.w3.org/1999/xlink" x="0px" y="0px"
	 viewBox="0 0 500 500" style="enable-background:new 0 0 500 500;" xml:space="preserve">
<style type="text/css">
	.st0{fill:#1D1D1B;}
</style>
<g>
	<path class="st0" d="M238.3,295.4c5.1,5.3,7.5,11.6,7.5,18.9c0,7.7-2.8,14.4-8.3,19.9c-5.5,5.5-12,8.3-19.9,8.3
		c-7.7,0-14.4-2.8-19.9-8.3c-5.5-5.5-8.3-12.2-8.3-19.9c0-7.3,2.4-13.6,7.3-18.9c5.1-5.5,11.2-8.5,18.3-9.1V212
		c-2.4-0.2-5.3-0.8-8.3-2l-40.4,79.9c8.7,4.9,14,14,14,24.3c0,7.7-2.8,14.4-8.3,19.9c-5.5,5.5-12,8.3-19.9,8.3
		c-7.7,0-14.4-2.8-19.9-8.3c-5.5-5.5-8.3-12.2-8.3-19.9c0-10.3,5.7-19.5,14-24.3L97.6,210c-2.4,1-5.3,1.8-8.3,2v74.2
		c7.1,0.6,13.2,3.7,18.1,8.9c5.1,5.3,7.5,11.6,7.5,19.1c0,7.7-2.8,14.4-8.3,19.9c-5.5,5.5-12,8.3-19.9,8.3c-7.7,0-14.4-2.8-19.9-8.3
		c-5.5-5.5-8.3-12.2-8.3-19.9c0-7.3,2.4-13.6,7.3-18.9c5.1-5.5,11.2-8.5,18.5-9.1V212c-7.1-0.6-13.2-3.7-18.3-8.9
		c-5.1-5.5-7.5-11.8-7.5-19.1c0-7.9,2.8-14.4,8.3-19.9c5.5-5.5,12.2-8.3,19.9-8.3c7.9,0,14.4,2.8,19.9,8.3c5.5,5.5,8.3,12,8.3,19.9
		c0,10.3-4.3,18.3-13,23.7l40.6,80.1c3-1.2,6.3-1.8,9.7-1.8c3.2,0,6.5,0.6,9.7,1.6l40.6-79.9c-8.7-5.7-13-13.6-13-23.7
		c0-7.9,2.8-14.4,8.3-19.9c5.5-5.5,12.2-8.3,19.9-8.3c7.9,0,14.4,2.8,19.9,8.3c5.5,5.5,8.3,12,8.3,19.9c0,7.3-2.4,13.6-7.5,19.1
		c-5.1,5.3-11.2,8.3-18.3,8.9v74.2C227.4,286.9,233.5,289.9,238.3,295.4z"/>
	<path class="st0" d="M441.6,294.8l-0.2,45.6h-45.8v-45.6h-22.9v21.9H327v-21.9h-22.9v45.6h-45.8v-45.6h22.9v-45.6h22.9v-45.6H327
		v-45.6h45.8v45.6h22.9v45.6h22.9v45.6H441.6z M372.8,249.1H327V271h45.8V249.1z"/>
</g>
</svg>
