<svg width="242" height="277" viewBox="0 0 242 277" fill="none" xmlns="http://www.w3.org/2000/svg">
<path d="M92.1377 141.374H63.3908L91.1312 148.708L89.931 153.069L62.2875 145.735L87.1279 159.909L84.8242 163.871L59.9838 149.697L80.217 169.723L77.0113 172.991L56.6812 152.87L71.1068 177.455L67.1035 179.735L52.7822 155.15L60.1926 182.606L55.7866 183.698L48.3762 156.338V184.686H43.769V156.338L36.3586 183.698L31.9526 182.606L39.363 155.15L25.0418 179.735L21.0384 177.455L35.3596 152.87L15.1265 172.991L11.8239 169.723L32.1539 149.697L7.31353 163.871L5.0099 159.909L29.8503 145.735L2.10241 153.076L0.902136 148.716L28.6426 141.381H6.82535e-05V136.821H28.6426L0.902136 129.48L2.10241 125.119L29.8428 132.453L5.0099 118.279L7.31353 114.317L32.1539 128.587L11.8239 108.465L15.1265 105.293L35.3596 125.318L21.0384 100.733L25.0418 98.4527L39.363 123.038L31.9526 95.6783L36.3586 94.4904L43.769 121.85V93.5016H48.3762V121.85L55.7866 94.4904L60.1926 95.6783L52.7822 123.038L67.1035 98.4527L71.1068 100.733L56.6812 125.318L77.0113 105.293L80.217 108.465L59.9838 128.587L84.8242 114.317L87.1279 118.279L61.8923 132.652L59.5887 128.786L56.4799 125.709L52.5735 123.525L48.2644 122.337H43.7541L39.5494 123.525L35.6429 125.709L32.5416 128.786L30.238 132.652L29.1346 136.917V141.278L30.238 145.543L32.5416 149.409L35.6429 152.486L39.5494 154.766L43.7541 155.858H48.2644L52.5735 154.766L56.4799 152.486L59.5887 149.409L61.7954 145.543L62.9957 141.381H43.769V136.821H92.1377V141.381V141.374Z" fill="black"/>
<path d="M100.897 100.364H136.235C149.542 100.364 159.271 108.886 159.271 122.61C159.271 132.35 148.647 140.097 137.688 140.097V143.418C146.523 143.418 156.587 150.28 159.271 158.692L165.421 177.839H154.239L148.983 161.348C146.746 154.486 140.819 146.517 135.452 146.517H111.633V177.839H100.897V100.364ZM135.452 137.663C142.609 137.663 148.535 131.354 148.535 122.61C148.535 113.313 142.385 109.329 135.452 109.218L111.633 108.997V137.663H135.452Z" fill="black"/>
<path d="M174.442 171.523L200.05 100.356H216.377L241.985 171.523V177.832H231.25V172.74L225.1 155.032H191.328L185.178 172.74V177.832H174.442V171.523ZM222.08 146.177L210.898 113.748C210.339 111.756 210.003 106.444 210.003 106.444H206.425C206.425 106.444 206.201 111.756 205.53 113.748L194.347 146.177H222.08Z" fill="black"/>
<path d="M107.435 74C103.216 69.9048 101.099 65.035 101.099 59.4567C101.099 50.75 105.318 46.1384 109.896 41.9547C114.473 37.7784 119.222 34.0301 120.191 27.0647H125.29C126.431 34.9008 133.297 39.4312 138.307 44.3897C141.826 47.7838 144.465 52.9193 144.465 59.4494C144.465 65.0202 142.355 69.8975 138.128 73.9926C133.909 78.0877 128.802 80.0873 122.733 80.0873C116.665 80.0873 111.648 78.0877 107.428 73.9926L107.435 74ZM122.741 23.154C119.483 23.154 116.762 22.0251 114.473 19.7599C112.184 17.4947 111.044 14.7941 111.044 11.577C111.044 8.35995 112.184 5.65939 114.473 3.39416C116.762 1.12893 119.49 0 122.741 0C125.991 0 128.72 1.12893 131.008 3.39416C133.297 5.65939 134.438 8.35995 134.438 11.577C134.438 14.7941 133.297 17.4947 131.008 19.7599C128.72 22.0251 125.991 23.154 122.741 23.154Z" fill="black"/>
<path d="M241.985 43.5559V36.5167H188.748V43.5559H241.985Z" fill="black"/>
<path d="M101.173 199.414H135.057C157.31 199.414 171.288 216.569 171.288 237.488C171.288 260.066 158.988 276.889 139.194 276.889H101.173V199.414ZM138.523 268.035C152.054 268.035 160.553 255.307 160.553 237.488C160.553 221.218 150.824 208.6 134.274 208.6L111.909 208.379V268.035H138.523Z" fill="black"/>
<path d="M53.2294 241.671V234.632H0V241.671H53.2294Z" fill="black"/>
<path d="M237.788 257.58H235.611V238.152H227.932V218.724H218.077V199.296H198.365V218.724H188.51V238.152H180.853V257.58H174.457V277H188.517V257.572H198.373V266.899H218.002V257.572H227.858V277H242V257.572H237.803L237.788 257.58ZM218.077 247.478H198.365V238.152H218.077V247.478Z" fill="black"/>
<path d="M6.82535e-05 1.30602H17.3332L44.7307 67.6027H47.4145L75.483 1.30602H92.1451V78.7813H81.6334V27.869C81.6334 23.3311 85.2119 14.1448 86.2183 9.60694L82.8635 8.50015L55.0187 76.0143H37.2383L9.28167 8.50015L5.92688 9.60694C5.92688 9.60694 10.7354 23.3311 10.7354 27.869V78.7813H6.82535e-05V1.30602Z" fill="black"/>
</svg>
