<svg width="345" height="51" viewBox="0 0 345 51" fill="none" xmlns="http://www.w3.org/2000/svg">
<g clip-path="url(#clip0_140_144)">
<path d="M0.140137 0.991943H13.2043L28.0357 35.53C28.509 36.8948 28.9271 39.159 29.3058 42.3146H31.775C32.0117 39.159 32.3431 36.9027 32.7612 35.53L47.3243 0.991943H60.8145V50.4323H51.1347V28.5325C51.1347 26.4577 51.7106 23.4677 52.8624 19.5627C54.0142 15.6576 55.4421 11.579 57.1382 7.34259L54.6689 6.00146L36.8003 48.6652H23.5942L6.85368 6.00146L4.38442 7.34259C5.89122 11.579 7.16135 15.6576 8.19481 19.5627C9.22827 23.4756 9.74895 26.4655 9.74895 28.5325V50.4323H0.140137V0.991943Z" fill="black"/>
<path d="M69.382 47.182C66.7865 44.6339 65.4849 41.6045 65.4849 38.1412C65.4849 32.7293 68.0803 29.8577 70.9046 27.2544C73.721 24.651 76.6478 22.3237 77.2395 17.9927H80.3793C81.0814 22.8681 85.3099 25.6845 88.3945 28.7691C90.564 30.8833 92.1813 34.0784 92.1813 38.1412C92.1813 41.6045 90.8796 44.6417 88.2841 47.182C85.6886 49.7223 82.5409 50.9766 78.8094 50.9766C75.0779 50.9766 71.9854 49.7302 69.382 47.182ZM78.8094 15.555C76.8056 15.555 75.1252 14.8529 73.721 13.4407C72.3088 12.0365 71.6067 10.3561 71.6067 8.35232C71.6067 6.34851 72.3088 4.66815 73.721 3.26391C75.1331 1.85178 76.8056 1.14966 78.8094 1.14966C80.8132 1.14966 82.4936 1.85178 83.8978 3.26391C85.3099 4.66815 86.0121 6.34851 86.0121 8.35232C86.0121 10.3561 85.3099 12.0365 83.8978 13.4407C82.4857 14.8529 80.8132 15.555 78.8094 15.555Z" fill="black"/>
<path d="M145.811 27.1045H130.135L145.266 31.1436L144.612 33.5498L129.536 29.5106L143.081 37.3207L141.827 39.506L128.281 31.6959L139.318 42.7326L137.567 44.5392L126.475 33.4472L134.34 46.9927L132.155 48.247L124.345 34.7016L128.384 49.8327L125.978 50.4323L121.939 35.3564V50.9766H119.422V35.3564L115.383 50.4323L112.977 49.8327L117.016 34.7016L109.206 48.247L107.02 46.9927L114.831 33.4472L103.794 44.5392L101.987 42.7326L113.079 31.6959L99.5337 39.506L98.2794 37.3207L111.825 29.5106L96.6937 33.5498L96.0389 31.1436L111.17 27.1045H95.5498V24.5879H111.17L96.0389 20.5487L96.6937 18.1426L111.825 22.1817L98.2794 14.3716L99.5337 12.1864L113.079 20.0517L101.987 8.95975L103.794 7.2084L114.831 18.2451L107.02 4.69969L109.206 3.44534L117.016 16.9908L112.977 1.91487L115.383 1.26009L119.422 16.336V0.723633H121.939V16.3439L125.978 1.26797L128.384 1.92276L124.345 16.9987L132.155 3.45323L134.34 4.70758L126.475 18.253L137.567 7.21628L139.318 8.96764L128.281 20.0596L141.827 12.1942L143.081 14.3795L129.315 22.3001L128.06 20.17L126.364 18.4739L124.234 17.2748L121.883 16.62H119.422L117.126 17.2748L114.996 18.4739L113.3 20.17L112.046 22.3001L111.446 24.651V27.0571L112.046 29.4081L113.3 31.5381L114.996 33.2342L117.126 34.4886L119.422 35.0881H121.883L124.234 34.4886L126.364 33.2342L128.06 31.5381L129.26 29.4081L129.914 27.1124H119.43V24.5958H145.819V27.1124L145.811 27.1045Z" fill="black"/>
<path d="M150.489 0.991943H173.872C176.838 0.991943 179.497 1.53628 181.855 2.61708C184.206 3.69787 186.084 5.31512 187.472 7.45304C188.861 9.59885 189.555 12.147 189.555 15.1133C189.555 17.0461 188.814 18.8684 187.33 20.5882C185.847 22.308 183.962 23.6886 181.682 24.7221C179.394 25.7555 177.169 26.2762 175.008 26.2762V28.6113C178.684 28.6587 181.761 29.5423 184.262 31.2621C186.755 32.9819 188.522 35.3249 189.555 38.2912L193.792 50.4402H183.552L180.159 39.7743C179.497 37.6048 178.463 35.7115 177.051 34.0863C175.639 32.4612 173.943 31.6486 171.963 31.6486H160.098V50.4402H150.489V0.991943ZM173.517 24.588C175.26 24.588 176.767 23.7517 178.037 22.0793C179.307 20.4068 179.946 18.3241 179.946 15.8312C179.946 13.1962 179.355 11.2398 178.179 9.96963C177.004 8.6995 175.45 8.06049 173.517 8.06049H160.098V24.5801H173.517V24.588Z" fill="black"/>
<path d="M197.602 46.4089L213.853 0.991943H225.718L242.388 46.4089V50.4323H232.779V47.2531L229.032 36.5871H210.737L207.132 47.2531V50.4323H197.665L197.594 46.4089H197.602ZM226.917 29.5265L222.184 15.1133C221.853 13.6065 221.482 10.6639 221.056 6.28547H218.587C218.113 10.6639 217.743 13.6065 217.459 15.1133L212.867 29.5265H226.925H226.917Z" fill="black"/>
<path d="M246.908 0.991943H269.51C274.22 0.991943 278.378 2.07274 281.975 4.24221C285.58 6.41169 288.365 9.33851 290.345 13.0385C292.325 16.7384 293.311 20.7933 293.311 25.227C293.311 30.0314 292.451 34.3388 290.732 38.1492C289.012 41.9595 286.543 44.9574 283.316 47.119C280.089 49.2884 276.334 50.3692 272.051 50.3692H246.9V0.991943H246.908ZM271.419 43.3007C273.912 43.3007 276.09 42.5354 277.951 41.005C279.813 39.4745 281.233 37.3445 282.227 34.6149C283.213 31.8853 283.71 28.7534 283.71 25.2191C283.71 21.9688 283.119 19.0499 281.943 16.4623C280.768 13.8747 279.048 11.8472 276.784 10.3877C274.52 8.92828 271.838 8.1946 268.729 8.1946L256.509 8.0526V43.3007H271.412H271.419Z" fill="black"/>
<path d="M345 38.0386L344.945 50.4323H332.496V38.0386H326.271V43.9869H313.878V38.0386H307.653V50.4323H295.205V38.0386H301.429V25.645H307.653V13.2435H313.878V0.849854H326.327V13.2435H332.551V25.6371H338.776V38.0307H345V38.0386ZM326.319 25.645H313.87V31.5933H326.319V25.645Z" fill="black"/>
</g>
<defs>
<clipPath id="clip0_140_144">
<rect width="344.86" height="50.253" fill="white" transform="translate(0.140137 0.723633)"/>
</clipPath>
</defs>
</svg>
