<svg width="15" height="20" viewBox="0 0 15 20" fill="none" xmlns="http://www.w3.org/2000/svg">
<g clip-path="url(#clip0_74_85)">
<path d="M7.09676 0.813995C8.76119 0.815863 10.3569 1.47396 11.5338 2.64391C12.7108 3.81386 13.3728 5.40011 13.3747 7.05467C13.3747 11.0427 8.40966 17.3561 7.09676 18.9526C5.78986 17.3371 0.818848 10.932 0.818848 7.05467C0.820726 5.40011 1.48275 3.81386 2.65968 2.64391C3.83661 1.47396 5.43233 0.815863 7.09676 0.813995V0.813995ZM10.114 6.92226C10.114 6.32905 9.93702 5.74916 9.60549 5.25592C9.27395 4.76269 8.80273 4.37826 8.2514 4.15125C7.70008 3.92423 7.09341 3.86484 6.50813 3.98057C5.92285 4.0963 5.38523 4.38195 4.96327 4.80142C4.5413 5.22088 4.25394 5.75531 4.13752 6.33712C4.0211 6.91893 4.08085 7.52199 4.30921 8.07005C4.53758 8.6181 4.92431 9.08653 5.42048 9.4161C5.91666 9.74567 6.50001 9.92158 7.09676 9.92158C7.89671 9.92072 8.66365 9.60444 9.2293 9.04215C9.79495 8.47985 10.1131 7.71746 10.114 6.92226V6.92226Z" fill="black"/>
<path d="M7.09679 0C11.0098 0 14.1936 3.16484 14.1936 7.05467C14.1936 11.9262 7.68473 19.536 7.40741 19.8578C7.36903 19.9024 7.32139 19.9382 7.26777 19.9627C7.21415 19.9873 7.15582 20 7.09679 20C7.03745 19.9998 6.97887 19.9867 6.92513 19.9617C6.87139 19.9367 6.82378 19.9003 6.78562 19.8551C6.5083 19.5295 0.00219727 11.79 0.00219727 7.05467C0.00421918 5.18465 0.752263 3.39176 2.08226 2.06925C3.41225 0.746743 5.21561 0.0025854 7.09679 0V0ZM13.3747 7.05467C13.3747 5.39954 12.7133 3.8122 11.5359 2.64185C10.3586 1.4715 8.7618 0.814001 7.09679 0.814001C5.43178 0.814001 3.83497 1.4715 2.65763 2.64185C1.48029 3.8122 0.818872 5.39954 0.818872 7.05467C0.818872 10.932 5.79207 17.3371 7.09679 18.9527C8.40969 17.3561 13.3747 11.0427 13.3747 7.05467Z" fill="black"/>
<path d="M7.09687 3.92294C7.69359 3.92305 8.27689 4.09905 8.77299 4.42868C9.2691 4.75832 9.65574 5.22679 9.88402 5.77485C10.1123 6.32291 10.172 6.92596 10.0555 7.50774C9.93902 8.08951 9.65161 8.62389 9.22962 9.0433C8.80764 9.46271 8.27002 9.74831 7.68475 9.864C7.09948 9.97968 6.49285 9.92025 5.94155 9.69323C5.39026 9.4662 4.91907 9.08177 4.58756 8.58854C4.25604 8.09532 4.0791 7.51545 4.0791 6.92226C4.07997 6.12697 4.39821 5.3645 4.96398 4.80218C5.52974 4.23987 6.29682 3.92366 7.09687 3.92294ZM9.29523 6.92226C9.29523 6.49005 9.1663 6.06754 8.92474 5.70817C8.68318 5.34879 8.33984 5.06869 7.93814 4.90329C7.53644 4.73789 7.09443 4.69461 6.66799 4.77893C6.24155 4.86326 5.84984 5.07139 5.54239 5.37701C5.23494 5.68263 5.02557 6.07202 4.94075 6.49593C4.85592 6.91984 4.89946 7.35924 5.06585 7.75855C5.23223 8.15787 5.514 8.49917 5.87552 8.73929C6.23704 8.97942 6.66207 9.10759 7.09687 9.10759C7.67969 9.10687 8.23843 8.8764 8.65054 8.46673C9.06266 8.05706 9.29451 7.50163 9.29523 6.92226V6.92226Z" fill="black"/>
</g>
<defs>
<clipPath id="clip0_74_85">
<rect width="14.1935" height="20" fill="white"/>
</clipPath>
</defs>
</svg>
