<?xml version="1.0" encoding="utf-8"?>
<!-- Generator: Adobe Illustrator 26.2.1, SVG Export Plug-In . SVG Version: 6.00 Build 0)  -->
<svg version="1.1" id="Livello_1" xmlns="http://www.w3.org/2000/svg" xmlns:xlink="http://www.w3.org/1999/xlink" x="0px" y="0px"
	 viewBox="0 0 500 500" style="enable-background:new 0 0 500 500;" xml:space="preserve">
<style type="text/css">
	.st0{fill:#1D1D1B;}
</style>
<g>
	<path class="st0" d="M242.9,273.7h-46.7c-11.6,0-21.1,3.7-28.4,11.2c-7.3,7.5-11,17-11,29v26.6H147v-26.6c0-12-3.7-21.5-11-29
		c-7.1-7.5-16.2-11.2-27.4-11.2c-11.2,0-20.3,3.7-27.6,11.2c-7.1,7.5-10.8,17-10.8,29v26.6h-9.9V157.8h182.6V273.7z M224.4,224
		c10.8,0.8,10.8-17.6,0-16.4H79c-11.2-1.2-11.2,17.2,0,16.4H224.4z"/>
	<path class="st0" d="M371.5,198.4c-5.3-5.1-11.6-7.5-19.1-7.5c-7.7,0-14.2,2.6-19.7,8.1c-5.5,5.5-8.1,12-8.1,19.7
		c0,7.7,2.6,14.4,8.1,19.9c5.5,5.5,12,8.1,19.7,8.1c7.3,0,13.6-2.4,19.1-7.5c5.5-5.1,8.3-11.2,8.9-18.5h59.2v56.8h-59.2
		c-0.6-7.1-3.4-13.2-8.9-18.3c-5.3-5.1-11.6-7.5-19.1-7.5c-7.7,0-14.2,2.6-19.7,8.1c-5.5,5.5-8.1,12-8.1,19.7s2.6,14.4,8.1,19.9
		c5.5,5.5,12,8.1,19.7,8.1c7.5,0,13.8-2.4,19.1-7.5c5.3-5.1,8.3-11.2,8.9-18.5h59.2v58.8h-59.2c0-7.7-2.8-14.2-8.3-19.7
		s-12-8.1-19.7-8.1s-14.2,2.6-19.7,8.1c-5.5,5.5-8.1,12-8.1,19.7h-63.5v-32.9c7.7,0,14.2-2.6,19.7-8.1c5.5-5.5,8.3-12.2,8.3-19.9
		s-2.8-14.2-8.3-19.7c-5.5-5.5-12-8.1-19.7-8.1v-5.1c7.7,0,14.2-2.6,19.7-8.1c5.5-5.5,8.3-12.2,8.3-19.9c0-7.7-2.8-14.2-8.3-19.7
		c-5.5-5.5-12-8.1-19.7-8.1v-33.1h63.5c0,7.7,2.6,14.4,8.1,19.9c5.5,5.5,12,8.1,19.7,8.1s14.2-2.6,19.7-8.1s8.3-12.2,8.3-19.9h59.2
		v58.8h-59.2C379.8,209.6,377,203.5,371.5,198.4z"/>
</g>
</svg>
