<svg width="104" height="50" viewBox="0 0 104 50" fill="none" xmlns="http://www.w3.org/2000/svg">
<path d="M49.918 31.7387H37.1515C33.9803 31.7387 31.3833 32.7502 29.3876 34.8005C27.392 36.8508 26.3805 39.4478 26.3805 42.7283V50H23.7015V42.7283C23.7015 39.4478 22.69 36.8508 20.6944 34.8005C18.7534 32.7502 16.2657 31.7387 13.2039 31.7387C10.1422 31.7387 7.65446 32.7502 5.65883 34.8005C3.71788 36.8508 2.7064 39.4478 2.7064 42.7283V50H0V0.0546875H49.918V31.7387ZM44.8606 18.152C47.813 18.3707 47.813 13.3406 44.8606 13.6687H5.11208C2.0503 13.3406 2.0503 18.3707 5.11208 18.152H44.8606Z" fill="#8B4D99"/>
<path d="M85.074 11.1536C83.6251 9.75943 81.9028 9.10333 79.8525 9.10333C77.7476 9.10333 75.9706 9.8141 74.4671 11.3177C72.9635 12.8212 72.2528 14.5981 72.2528 16.7031C72.2528 18.8081 72.9635 20.6397 74.4671 22.1432C75.9706 23.6468 77.7476 24.3576 79.8525 24.3576C81.8482 24.3576 83.5704 23.7015 85.074 22.3073C86.5775 20.9131 87.343 19.2455 87.507 17.2499H103.691V32.7775H87.507C87.343 30.8365 86.5775 29.1689 85.074 27.7747C83.6251 26.3805 81.9028 25.7244 79.8525 25.7244C77.7476 25.7244 75.9706 26.4352 74.4671 27.9388C72.9635 29.4423 72.2528 31.2192 72.2528 33.3242C72.2528 35.4292 72.9635 37.2608 74.4671 38.7643C75.9706 40.2679 77.7476 40.9787 79.8525 40.9787C81.9028 40.9787 83.6251 40.3226 85.074 38.9284C86.5229 37.5342 87.343 35.8666 87.507 33.871H103.691V49.9453H87.507C87.507 47.8403 86.7416 46.0634 85.238 44.5599C83.7345 43.0563 81.9575 42.3455 79.8525 42.3455C77.7476 42.3455 75.9706 43.0563 74.4671 44.5599C72.9635 46.0634 72.2528 47.8403 72.2528 49.9453H54.8936V40.9513C56.9985 40.9513 58.7755 40.2406 60.279 38.737C61.7826 37.2335 62.548 35.4019 62.548 33.2969C62.548 31.1919 61.7826 29.415 60.279 27.9114C58.7755 26.4079 56.9985 25.6971 54.8936 25.6971V24.3029C56.9985 24.3029 58.7755 23.5921 60.279 22.0886C61.7826 20.585 62.548 18.7534 62.548 16.6484C62.548 14.5435 61.7826 12.7665 60.279 11.263C58.7755 9.75943 56.9985 9.04866 54.8936 9.04866V0H72.2528C72.2528 2.10498 72.9635 3.93658 74.4671 5.44013C75.9706 6.94368 77.7476 7.65446 79.8525 7.65446C81.9575 7.65446 83.7345 6.94368 85.238 5.44013C86.7416 3.93658 87.507 2.10498 87.507 0H103.691V16.0744H87.507C87.343 14.2154 86.5775 12.5478 85.074 11.1536Z" fill="#8B4D99"/>
</svg>
