<svg width="94" height="50" viewBox="0 0 94 50" fill="none" xmlns="http://www.w3.org/2000/svg">
<path d="M0.380452 28.0972H21.5759C21.8492 28.0972 21.9564 28.2071 21.9564 28.4777C22.01 31.2507 22.9879 33.587 24.8902 35.4892C26.7924 37.3379 29.185 38.2622 32.0652 38.2622C34.9453 38.2622 37.3379 37.3379 39.2402 35.4356C41.1424 33.5334 42.0668 31.3605 42.0668 28.8608C42.0668 26.8514 40.8718 25.6002 38.7525 25.6002H4.61901C1.79241 25.6002 0 23.9149 0 21.1446C0 15.1645 2.11928 10.1624 6.30426 6.08724C10.5428 2.01211 15.7057 0 21.7394 0C27.773 0 32.9359 2.06569 37.1209 6.14082C41.3059 10.2159 43.3716 15.3253 43.3716 21.5223C43.3716 21.7929 43.2617 21.9028 42.9911 21.9028H21.7929C21.5223 21.9028 21.4125 21.7929 21.4125 21.5223C21.4125 18.7493 20.4346 16.4666 18.5323 14.567C16.6301 12.6675 14.2375 11.7404 11.3037 11.7404C8.36995 11.7404 6.03097 12.6648 4.12871 14.567C2.22645 16.4693 1.30211 18.6422 1.30211 21.1419C1.30211 23.154 2.49705 24.4025 4.61633 24.4025H38.7472C41.5738 24.4025 43.3662 26.0878 43.3662 28.8581C43.3662 34.8355 41.2469 39.8376 37.0084 43.9128C32.8234 47.9879 27.6605 50 21.6268 50C15.5932 50 10.4866 47.9879 6.35516 43.9128C2.22913 39.8376 0.109849 34.7283 0 28.4777C0 28.2071 0.109849 28.0972 0.380452 28.0972Z" fill="#FFDE1A"/>
<path d="M88.3158 5.37992C91.5229 8.58697 93.0983 12.4987 93.0983 17.1739C93.0983 21.8492 91.5229 25.8145 88.3158 29.0215C85.1088 32.2286 81.0336 33.804 75.9779 33.804H63.3158V25.0536H47.6637V9.40146H63.3158V0.543886H75.9779C81.0336 0.543886 85.1088 2.17554 88.3158 5.37992ZM47.6637 33.804H63.3158V49.4561H47.6637V33.804ZM77.339 17.2275C77.339 16.6301 77.0121 16.3032 76.3611 16.3032H63.3185V18.1519H76.3611C77.0121 18.1519 77.339 17.825 77.339 17.2275Z" fill="#FFDE1A"/>
</svg>
