<?xml version="1.0" encoding="utf-8"?>
<!-- Generator: Adobe Illustrator 26.2.1, SVG Export Plug-In . SVG Version: 6.00 Build 0)  -->
<svg version="1.1" id="Livello_1" xmlns="http://www.w3.org/2000/svg" xmlns:xlink="http://www.w3.org/1999/xlink" x="0px" y="0px"
	 viewBox="0 0 500 500" style="enable-background:new 0 0 500 500;" xml:space="preserve">
<style type="text/css">
	.st0{fill:#1D1D1B;}
</style>
<g>
	<path class="st0" d="M77.7,260.7h79.1c1,0,1.4,0.4,1.4,1.4c0.2,10.3,3.9,19.1,11,26.2c7.1,6.9,16,10.3,26.8,10.3
		c10.8,0,19.7-3.4,26.8-10.5s10.5-15.2,10.5-24.5c0-7.5-4.5-12.2-12.4-12.2H93.5c-10.5,0-17.2-6.3-17.2-16.6
		c0-22.3,7.9-41,23.5-56.2c15.8-15.2,35.1-22.7,57.6-22.7c22.7,0,41.8,7.7,57.4,22.9s23.3,34.3,23.3,57.4c0,1-0.4,1.4-1.4,1.4h-79.1
		c-1,0-1.4-0.4-1.4-1.4c0-10.3-3.7-18.9-10.8-26s-16-10.5-27-10.5c-10.8,0-19.7,3.4-26.8,10.5s-10.5,15.2-10.5,24.5
		c0,7.5,4.5,12.2,12.4,12.2h127.4c10.5,0,17.2,6.3,17.2,16.6c0,22.3-7.9,41-23.7,56.2c-15.6,15.2-34.9,22.7-57.4,22.7
		c-22.5,0-41.6-7.5-57-22.7c-15.4-15.2-23.3-34.3-23.7-57.6C76.3,261.1,76.7,260.7,77.7,260.7z"/>
	<path class="st0" d="M405.9,175.9c12,12,17.9,26.6,17.9,44s-5.9,32.3-17.9,44.2c-12,12-27.2,17.9-46,17.9h-47.3v-32.7h-58.4v-58.4
		h58.4v-33.1h47.3C378.7,157.8,393.9,163.9,405.9,175.9z M254.2,282h58.4v58.4h-58.4V282z M364.9,220.1c0-2.2-1.2-3.4-3.7-3.4h-48.7
		v6.9h48.7C363.7,223.6,364.9,222.3,364.9,220.1z"/>
</g>
</svg>
