<?xml version="1.0" encoding="utf-8"?>
<!-- Generator: Adobe Illustrator 26.2.1, SVG Export Plug-In . SVG Version: 6.00 Build 0)  -->
<svg version="1.1" id="Livello_1" xmlns="http://www.w3.org/2000/svg" xmlns:xlink="http://www.w3.org/1999/xlink" x="0px" y="0px"
	 viewBox="0 0 500 500" style="enable-background:new 0 0 500 500;" xml:space="preserve">
<style type="text/css">
	.st0{fill:#1D1D1B;}
</style>
<g>
	<g>
		<path class="st0" d="M61.2,157.8h69.6c0,10.3,7.5,17.6,18.1,17.6c10.3,0,17.9-7.3,17.9-17.6h69.6v97c0,25.4-8.3,46.2-24.9,62.9
			c-16.4,16.4-37.3,24.7-62.5,24.7c-25.4,0-46.2-8.3-62.7-24.7c-16.4-16.6-24.7-37.5-25-62.9V157.8z M124.7,249.9v-86H67.3v86H124.7
			z M148.9,272.4c10.3,0,17.9-7.3,17.9-17.6v-80.5c-4.5,4.9-10.3,7.3-17.9,7.3s-13.4-2.4-18.1-7.5v80.7
			C130.8,265.1,138.3,272.4,148.9,272.4z M230.2,249.9v-86h-57.4v86H230.2z"/>
		<path class="st0" d="M278.9,183.6c18.3-18.5,40.2-27.8,65.7-27.8c50.7-1,95.1,42,94.1,92.1H259.6v3.2c0,2.4,1.6,4.5,3.9,4.5h162.7
			c6.7,0,11.6,4.9,11.6,11.6c0,6.7-4.9,11.6-11.6,11.6H277.3c-2.6,0-3.9,1.2-3.9,3.9s1.2,3.9,3.9,3.9h135.1
			c6.7,0,11.6,4.9,11.6,11.6c0,6.7-4.9,11.6-11.6,11.6H295.1c-2.6,0-3.9,1.2-3.9,3.9c0,2.6,1.2,3.9,3.9,3.9h99.4
			c6.7,0,11.6,4.9,11.6,11.6s-4.9,11.6-11.6,11.6h-77.1c-2.6,0-3.9-1.2-3.9-3.9s1.2-3.9,3.9-3.9h76.7c2.6,0,3.9-1.2,3.9-3.9
			c0-2.6-1.2-3.9-3.9-3.9h-99.4c-6.7,0-11.6-4.9-11.6-11.6s4.9-11.6,11.6-11.6H412c2.6,0,3.9-1.2,3.9-3.9c0-2.6-1.2-3.9-3.9-3.9
			H276.9c-6.7,0-11.6-4.9-11.6-11.6s4.9-11.6,11.6-11.6h148.9c2.6,0,3.9-1.2,3.9-3.9c0-2.6-1.2-3.9-3.9-3.9H263.1
			c-6.7,0-11.6-5.1-11.6-12.6C251.5,224.4,260.6,202.1,278.9,183.6z"/>
	</g>
</g>
</svg>
